<svg width="212" height="127" viewBox="0 0 212 127" fill="none" xmlns="http://www.w3.org/2000/svg">
<path d="M16.896 46.08C14.464 46.08 12.2027 45.76 10.112 45.12C8.064 44.48 6.18667 43.52 4.48 42.24C2.816 40.9173 1.32267 39.296 0 37.376L4.736 31.936C6.82667 34.9227 8.832 36.992 10.752 38.144C12.672 39.296 14.9547 39.872 17.6 39.872C19.2213 39.872 20.6933 39.616 22.016 39.104C23.3387 38.592 24.384 37.888 25.152 36.992C25.92 36.096 26.304 35.072 26.304 33.92C26.304 33.152 26.176 32.4267 25.92 31.744C25.664 31.0613 25.2587 30.4427 24.704 29.888C24.192 29.3333 23.5093 28.8213 22.656 28.352C21.8453 27.8827 20.8853 27.4773 19.776 27.136C18.6667 26.752 17.3867 26.432 15.936 26.176C13.632 25.7067 11.6267 25.088 9.92 24.32C8.21333 23.552 6.784 22.592 5.632 21.44C4.48 20.288 3.62667 18.9867 3.072 17.536C2.51733 16.0427 2.24 14.3787 2.24 12.544C2.24 10.752 2.624 9.088 3.392 7.552C4.20267 6.016 5.29067 4.69333 6.656 3.584C8.064 2.432 9.70667 1.55733 11.584 0.959999C13.4613 0.32 15.488 0 17.664 0C19.968 0 22.08 0.298667 24 0.896C25.92 1.49333 27.6267 2.38933 29.12 3.584C30.6133 4.736 31.8507 6.16533 32.832 7.872L27.968 12.672C27.1147 11.264 26.1547 10.0907 25.088 9.152C24.0213 8.17067 22.848 7.44533 21.568 6.976C20.288 6.464 18.9227 6.208 17.472 6.208C15.808 6.208 14.3573 6.464 13.12 6.976C11.8827 7.488 10.9013 8.21333 10.176 9.152C9.49333 10.048 9.152 11.1147 9.152 12.352C9.152 13.248 9.32267 14.08 9.664 14.848C10.0053 15.5733 10.5173 16.2347 11.2 16.832C11.9253 17.3867 12.8853 17.8987 14.08 18.368C15.2747 18.7947 16.704 19.1787 18.368 19.52C20.7147 20.032 22.8053 20.6933 24.64 21.504C26.4747 22.272 28.032 23.1893 29.312 24.256C30.592 25.3227 31.552 26.5173 32.192 27.84C32.8747 29.1627 33.216 30.592 33.216 32.128C33.216 34.9867 32.5547 37.4613 31.232 39.552C29.9093 41.6427 28.032 43.264 25.6 44.416C23.168 45.5253 20.2667 46.08 16.896 46.08Z" fill="black"/>
<path d="M72.2575 45.44V0.639999H79.1695V45.44H72.2575ZM43.0095 45.44V0.639999H49.9215V45.44H43.0095ZM46.0175 26.432V19.776H75.3295V26.432H46.0175Z" fill="black"/>
<path d="M87.025 45.44L104.369 0.639999H111.409L128.625 45.44H121.265L111.025 18.432C110.897 18.1333 110.641 17.408 110.257 16.256C109.916 15.104 109.51 13.824 109.041 12.416C108.572 11.008 108.145 9.728 107.761 8.576C107.377 7.38133 107.121 6.61333 106.993 6.272L108.465 6.208C108.209 6.93333 107.889 7.85067 107.505 8.96C107.164 10.0693 106.78 11.2427 106.353 12.48C105.969 13.7173 105.585 14.8907 105.201 16C104.817 17.0667 104.497 17.9627 104.241 18.688L94.065 45.44H87.025ZM94.705 34.304L97.265 27.648H117.617L120.561 34.304H94.705Z" fill="black"/>
<path d="M142.27 31.872L141.885 24.128L165.374 0.639999H174.462L142.27 31.872ZM136.51 45.44V0.639999H143.421V45.44H136.51ZM166.206 45.44L149.053 22.528L154.174 18.112L174.846 45.44H166.206Z" fill="black"/>
<path d="M183.385 45.44V0.639999H211.609V7.296H190.296V38.784H211.609V45.44H183.385ZM186.52 25.792V19.136H208.089V25.792H186.52Z" fill="black"/>
<path d="M33.6 125.44L27.776 119.232L26.752 118.08L15.68 105.728C14.6133 104.533 13.5893 103.317 12.608 102.08C11.6267 100.8 10.752 99.5413 9.984 98.304C9.25867 97.0667 8.66133 95.872 8.192 94.72C7.76533 93.5253 7.552 92.416 7.552 91.392C7.552 89.216 8.10667 87.2747 9.216 85.568C10.368 83.8187 11.9253 82.4533 13.888 81.472C15.8933 80.4907 18.1973 80 20.8 80C22.72 80 24.512 80.3627 26.176 81.088C27.84 81.7707 29.2693 82.752 30.464 84.032C31.7013 85.2693 32.5973 86.72 33.152 88.384L28.16 91.584C27.3493 89.6213 26.3467 88.192 25.152 87.296C24 86.4 22.5493 85.952 20.8 85.952C19.4773 85.952 18.368 86.1653 17.472 86.592C16.576 86.976 15.8933 87.552 15.424 88.32C14.9547 89.088 14.72 90.048 14.72 91.2C14.72 92.1387 14.976 93.184 15.488 94.336C16.0427 95.4453 16.7253 96.576 17.536 97.728C18.3467 98.88 19.1787 99.9467 20.032 100.928C20.8853 101.909 21.632 102.763 22.272 103.488L31.168 113.408L33.024 115.456L42.176 125.44H33.6ZM16.384 126.08C13.3547 126.08 10.6027 125.44 8.128 124.16C5.65333 122.837 3.66933 121.109 2.176 118.976C0.725333 116.8 0 114.432 0 111.872C0 108.501 0.917333 105.579 2.752 103.104C4.62933 100.629 7.36 98.7307 10.944 97.408L15.04 102.336C12.3093 102.933 10.2827 103.936 8.96 105.344C7.63733 106.709 6.976 108.565 6.976 110.912C6.976 112.704 7.40267 114.283 8.256 115.648C9.10933 117.013 10.3253 118.08 11.904 118.848C13.5253 119.616 15.4453 120 17.664 120C19.584 120 21.3333 119.637 22.912 118.912C24.5333 118.144 25.984 117.077 27.264 115.712C28.544 114.347 29.5893 112.704 30.4 110.784C31.2533 108.864 31.872 106.731 32.256 104.384H38.144C37.8027 106.987 37.184 109.397 36.288 111.616C35.4347 113.835 34.3467 115.84 33.024 117.632C31.744 119.424 30.2507 120.96 28.544 122.24C26.88 123.477 25.024 124.437 22.976 125.12C20.928 125.76 18.7307 126.08 16.384 126.08Z" fill="black"/>
<path d="M82.146 126.08C79.714 126.08 77.4527 125.76 75.362 125.12C73.314 124.48 71.4367 123.52 69.73 122.24C68.066 120.917 66.5727 119.296 65.25 117.376L69.986 111.936C72.0767 114.923 74.082 116.992 76.002 118.144C77.922 119.296 80.2047 119.872 82.85 119.872C84.4713 119.872 85.9433 119.616 87.266 119.104C88.5887 118.592 89.634 117.888 90.402 116.992C91.17 116.096 91.554 115.072 91.554 113.92C91.554 113.152 91.426 112.427 91.17 111.744C90.914 111.061 90.5087 110.443 89.954 109.888C89.442 109.333 88.7593 108.821 87.906 108.352C87.0953 107.883 86.1353 107.477 85.026 107.136C83.9167 106.752 82.6367 106.432 81.186 106.176C78.882 105.707 76.8767 105.088 75.17 104.32C73.4633 103.552 72.034 102.592 70.882 101.44C69.73 100.288 68.8767 98.9867 68.322 97.536C67.7673 96.0427 67.49 94.3787 67.49 92.544C67.49 90.752 67.874 89.088 68.642 87.552C69.4527 86.016 70.5407 84.6933 71.906 83.584C73.314 82.432 74.9567 81.5573 76.834 80.96C78.7113 80.32 80.738 80 82.914 80C85.218 80 87.33 80.2987 89.25 80.896C91.17 81.4933 92.8767 82.3893 94.37 83.584C95.8633 84.736 97.1007 86.1653 98.082 87.872L93.218 92.672C92.3647 91.264 91.4047 90.0907 90.338 89.152C89.2713 88.1707 88.098 87.4453 86.818 86.976C85.538 86.464 84.1727 86.208 82.722 86.208C81.058 86.208 79.6073 86.464 78.37 86.976C77.1327 87.488 76.1513 88.2133 75.426 89.152C74.7433 90.048 74.402 91.1147 74.402 92.352C74.402 93.248 74.5727 94.08 74.914 94.848C75.2553 95.5733 75.7673 96.2347 76.45 96.832C77.1753 97.3867 78.1353 97.8987 79.33 98.368C80.5247 98.7947 81.954 99.1787 83.618 99.52C85.9647 100.032 88.0553 100.693 89.89 101.504C91.7247 102.272 93.282 103.189 94.562 104.256C95.842 105.323 96.802 106.517 97.442 107.84C98.1247 109.163 98.466 110.592 98.466 112.128C98.466 114.987 97.8047 117.461 96.482 119.552C95.1593 121.643 93.282 123.264 90.85 124.416C88.418 125.525 85.5167 126.08 82.146 126.08Z" fill="black"/>
<path d="M116.771 125.44V87.296H104.228V80.64H136.611V87.296H123.684V125.44H116.771Z" fill="black"/>
<path d="M143.471 125.44V119.04H150.702V87.04H143.471V80.64H164.846V87.04H157.615V119.04H164.846V125.44H143.471Z" fill="black"/>
<path d="M175.697 125.44V80.64H194.769C197.329 80.64 199.676 81.28 201.809 82.56C203.985 83.7973 205.713 85.504 206.993 87.68C208.273 89.8133 208.913 92.224 208.913 94.912C208.913 97.344 208.273 99.6053 206.993 101.696C205.713 103.787 204.006 105.472 201.873 106.752C199.74 107.989 197.372 108.608 194.769 108.608H182.609V125.44H175.697ZM202.321 125.44L190.929 105.216L198.033 103.616L210.705 125.504L202.321 125.44ZM182.609 101.952H195.409C196.646 101.952 197.756 101.653 198.737 101.056C199.718 100.416 200.486 99.5627 201.041 98.496C201.596 97.3867 201.873 96.1707 201.873 94.848C201.873 93.3547 201.51 92.0533 200.785 90.944C200.102 89.792 199.121 88.896 197.841 88.256C196.604 87.616 195.196 87.296 193.617 87.296H182.609V101.952Z" fill="black"/>
</svg>
